<svg width="17" height="17" viewBox="0 0 17 17" fill="none" xmlns="http://www.w3.org/2000/svg">
<path d="M15.5209 11.9987V14.1167C15.5217 14.3133 15.4814 14.5079 15.4027 14.688C15.3239 14.8682 15.2084 15.0299 15.0635 15.1628C14.9186 15.2957 14.7476 15.3969 14.5613 15.4599C14.3751 15.5229 14.1777 15.5463 13.9819 15.5286C11.8095 15.2926 9.72277 14.5502 7.88936 13.3613C6.18361 12.2774 4.73744 10.8312 3.65353 9.12544C2.46042 7.2837 1.71793 5.18682 1.4862 3.00466C1.46856 2.80944 1.49176 2.61268 1.55433 2.42691C1.61689 2.24115 1.71745 2.07044 1.84961 1.92567C1.98176 1.7809 2.14261 1.66523 2.32192 1.58603C2.50123 1.50683 2.69506 1.46583 2.89108 1.46564H5.009C5.35161 1.46227 5.68376 1.5836 5.94354 1.807C6.20331 2.03041 6.37299 2.34066 6.42094 2.67992C6.51033 3.3577 6.67611 4.02319 6.91512 4.6637C7.01011 4.91638 7.03066 5.191 6.97436 5.45501C6.91805 5.71902 6.78724 5.96135 6.59743 6.1533L5.70085 7.04988C6.70584 8.81731 8.16925 10.2807 9.93668 11.2857L10.8333 10.3891C11.0252 10.1993 11.2675 10.0685 11.5316 10.0122C11.7956 9.9559 12.0702 9.97646 12.3229 10.0714C12.9634 10.3104 13.6289 10.4762 14.3066 10.5656C14.6496 10.614 14.9628 10.7867 15.1867 11.051C15.4105 11.3152 15.5295 11.6525 15.5209 11.9987Z" stroke="#666666" stroke-linecap="round" stroke-linejoin="round"/>
</svg>
