<svg width="17" height="17" viewBox="0 0 17 17" fill="none" xmlns="http://www.w3.org/2000/svg">
<path d="M12.1504 0.68103H4.65039C2.57932 0.68103 0.900391 2.35249 0.900391 4.41434V11.881C0.900391 13.9428 2.57932 15.6143 4.65039 15.6143H12.1504C14.2215 15.6143 15.9004 13.9428 15.9004 11.881V4.41434C15.9004 2.35249 14.2215 0.68103 12.1504 0.68103Z" stroke="#666666" stroke-linecap="round" stroke-linejoin="round"/>
<path d="M11.0603 7.72626C11.1423 8.27659 11.0479 8.83863 10.7905 9.33245C10.5331 9.82627 10.1259 10.2267 9.6267 10.4768C9.12754 10.727 8.56186 10.814 8.01013 10.7257C7.4584 10.6373 6.94871 10.3779 6.55356 9.98454C6.15841 9.59115 5.89792 9.08373 5.80914 8.53445C5.72036 7.98518 5.80781 7.42202 6.05905 6.92508C6.31029 6.42813 6.71254 6.02271 7.20856 5.76648C7.70459 5.51024 8.26915 5.41624 8.82193 5.49785C9.38579 5.58109 9.90781 5.84267 10.3109 6.24394C10.7139 6.64522 10.9767 7.16491 11.0603 7.72626Z" stroke="#666666" stroke-linecap="round" stroke-linejoin="round"/>
<path d="M12.5254 4.04224H12.5334" stroke="#666666" stroke-linecap="round" stroke-linejoin="round"/>
</svg>
