<svg width="15" height="19" viewBox="0 0 15 19" fill="none" xmlns="http://www.w3.org/2000/svg">
<path d="M13.2402 7.2395C13.2402 11.7049 7.49902 17.5019 7.49902 17.5019C7.49902 17.5019 1.75781 11.7049 1.75781 7.2395C1.75781 5.71684 2.36269 4.25654 3.43937 3.17985C4.51606 2.10317 5.97636 1.49829 7.49902 1.49829C9.02169 1.49829 10.482 2.10317 11.5587 3.17985C12.6354 4.25654 13.2402 5.71684 13.2402 7.2395Z" stroke="#666666" stroke-linecap="round" stroke-linejoin="round"/>
<path d="M7.49748 9.41049C8.69559 9.41049 9.66684 8.43924 9.66684 7.24114C9.66684 6.04303 8.69559 5.07178 7.49748 5.07178C6.29938 5.07178 5.32812 6.04303 5.32812 7.24114C5.32812 8.43924 6.29938 9.41049 7.49748 9.41049Z" stroke="#666666" stroke-linecap="round" stroke-linejoin="round"/>
</svg>
