<svg width="130" height="130" viewBox="0 0 130 130" fill="none" xmlns="http://www.w3.org/2000/svg">
<g clip-path="url(#clip0_623_136)">
<rect width="187.038" height="1.57346" transform="matrix(-0.628394 0.777895 0.777895 0.628394 51.0195 -66.5156)" fill="#E5E5E5"/>
<rect width="187.038" height="1.57346" transform="matrix(-0.628394 0.777895 0.777895 0.628394 88.25 -36.4395)" fill="#E5E5E5"/>
<rect width="187.038" height="1.57346" transform="matrix(-0.628394 0.777895 0.777895 0.628394 69.6348 -51.4766)" fill="#E5E5E5"/>
<rect width="187.038" height="1.57346" transform="matrix(-0.628394 0.777895 0.777895 0.628394 106.867 -21.4023)" fill="#E5E5E5"/>
<rect width="187.038" height="1.57346" transform="matrix(-0.628394 0.777895 0.777895 0.628394 60.3262 -58.9961)" fill="#E5E5E5"/>
<rect width="187.038" height="1.57346" transform="matrix(-0.628394 0.777895 0.777895 0.628394 97.5586 -28.9199)" fill="#E5E5E5"/>
<rect width="187.038" height="1.57346" transform="matrix(-0.628394 0.777895 0.777895 0.628394 78.9434 -43.959)" fill="#E5E5E5"/>
<rect width="187.038" height="1.57346" transform="matrix(-0.628394 0.777895 0.777895 0.628394 116.174 -13.8828)" fill="#E5E5E5"/>
<rect width="187.038" height="1.57346" transform="matrix(-0.628394 0.777895 0.777895 0.628394 55.6738 -62.7559)" fill="#E5E5E5"/>
<rect width="187.038" height="1.57346" transform="matrix(-0.628394 0.777895 0.777895 0.628394 92.9043 -32.6797)" fill="#E5E5E5"/>
<rect width="187.038" height="1.57346" transform="matrix(-0.628394 0.777895 0.777895 0.628394 74.2891 -47.7188)" fill="#E5E5E5"/>
<rect width="187.038" height="1.57346" transform="matrix(-0.628394 0.777895 0.777895 0.628394 111.52 -17.6426)" fill="#E5E5E5"/>
<rect width="187.038" height="1.57346" transform="matrix(-0.628394 0.777895 0.777895 0.628394 64.9805 -55.2363)" fill="#E5E5E5"/>
<rect width="187.038" height="1.57346" transform="matrix(-0.628394 0.777895 0.777895 0.628394 102.213 -25.1602)" fill="#E5E5E5"/>
<rect width="187.038" height="1.57346" transform="matrix(-0.628394 0.777895 0.777895 0.628394 83.5977 -40.1992)" fill="#E5E5E5"/>
<rect width="187.038" height="1.57346" transform="matrix(-0.628394 0.777895 0.777895 0.628394 120.828 -10.123)" fill="#E5E5E5"/>
<rect width="187.038" height="1.57346" transform="matrix(-0.628394 0.777895 0.777895 0.628394 125.482 -6.36328)" fill="#E5E5E5"/>
<rect width="187.038" height="1.57346" transform="matrix(-0.628394 0.777895 0.777895 0.628394 162.713 23.7129)" fill="#E5E5E5"/>
<rect width="187.038" height="1.57346" transform="matrix(-0.628394 0.777895 0.777895 0.628394 144.098 8.67383)" fill="#E5E5E5"/>
<rect width="187.038" height="1.57346" transform="matrix(-0.628394 0.777895 0.777895 0.628394 181.33 38.75)" fill="#E5E5E5"/>
<rect width="187.038" height="1.57346" transform="matrix(-0.628394 0.777895 0.777895 0.628394 134.791 1.15625)" fill="#E5E5E5"/>
<rect width="187.038" height="1.57346" transform="matrix(-0.628394 0.777895 0.777895 0.628394 172.021 31.2324)" fill="#E5E5E5"/>
<rect width="187.038" height="1.57346" transform="matrix(-0.628394 0.777895 0.777895 0.628394 153.406 16.1934)" fill="#E5E5E5"/>
<rect width="187.038" height="1.57346" transform="matrix(-0.628394 0.777895 0.777895 0.628394 190.637 46.2695)" fill="#E5E5E5"/>
<rect width="187.038" height="1.57346" transform="matrix(-0.628394 0.777895 0.777895 0.628394 130.137 -2.60352)" fill="#E5E5E5"/>
<rect width="187.038" height="1.57346" transform="matrix(-0.628394 0.777895 0.777895 0.628394 167.367 27.4727)" fill="#E5E5E5"/>
<rect width="187.038" height="1.57346" transform="matrix(-0.628394 0.777895 0.777895 0.628394 148.752 12.4336)" fill="#E5E5E5"/>
<rect width="187.038" height="1.57346" transform="matrix(-0.628394 0.777895 0.777895 0.628394 185.984 42.5098)" fill="#E5E5E5"/>
<rect width="187.038" height="1.57346" transform="matrix(-0.628394 0.777895 0.777895 0.628394 139.443 4.91602)" fill="#E5E5E5"/>
<rect width="187.038" height="1.57346" transform="matrix(-0.628394 0.777895 0.777895 0.628394 176.676 34.9922)" fill="#E5E5E5"/>
<rect width="187.038" height="1.57346" transform="matrix(-0.628394 0.777895 0.777895 0.628394 158.061 19.9531)" fill="#E5E5E5"/>
<rect width="187.038" height="1.57346" transform="matrix(-0.628394 0.777895 0.777895 0.628394 195.291 50.0293)" fill="#E5E5E5"/>
</g>
<defs>
<clipPath id="clip0_623_136">
<rect width="130" height="130" fill="white" transform="matrix(-1 8.74228e-08 8.74228e-08 1 130 0)"/>
</clipPath>
</defs>
</svg>
