<svg width="102" height="102" viewBox="0 0 102 102" fill="none" xmlns="http://www.w3.org/2000/svg">
<g clip-path="url(#clip0_301_186)">
<rect width="146.696" height="1.23408" transform="matrix(-0.617323 0.78671 0.78671 0.617323 38.5566 -52.0018)" fill="#28B2ED"/>
<rect width="146.696" height="1.23408" transform="matrix(-0.617323 0.78671 0.78671 0.617323 68.0879 -28.8281)" fill="#28B2ED"/>
<rect width="146.696" height="1.23408" transform="matrix(-0.617323 0.78671 0.78671 0.617323 53.3223 -40.416)" fill="#28B2ED"/>
<rect width="146.696" height="1.23408" transform="matrix(-0.617323 0.78671 0.78671 0.617323 82.8535 -17.2422)" fill="#28B2ED"/>
<rect width="146.696" height="1.23408" transform="matrix(-0.617323 0.78671 0.78671 0.617323 45.9395 -46.2089)" fill="#28B2ED"/>
<rect width="146.696" height="1.23408" transform="matrix(-0.617323 0.78671 0.78671 0.617323 75.4707 -23.0352)" fill="#28B2ED"/>
<rect width="146.696" height="1.23408" transform="matrix(-0.617323 0.78671 0.78671 0.617323 60.7051 -34.6211)" fill="#28B2ED"/>
<rect width="146.696" height="1.23408" transform="matrix(-0.617323 0.78671 0.78671 0.617323 90.2363 -11.4492)" fill="#28B2ED"/>
<rect width="146.696" height="1.23408" transform="matrix(-0.617323 0.78671 0.78671 0.617323 42.248 -49.1053)" fill="#28B2ED"/>
<rect width="146.696" height="1.23408" transform="matrix(-0.617323 0.78671 0.78671 0.617323 71.7793 -25.9316)" fill="#28B2ED"/>
<rect width="146.696" height="1.23408" transform="matrix(-0.617323 0.78671 0.78671 0.617323 57.0137 -37.5195)" fill="#28B2ED"/>
<rect width="146.696" height="1.23408" transform="matrix(-0.617323 0.78671 0.78671 0.617323 86.5449 -14.3457)" fill="#28B2ED"/>
<rect width="146.696" height="1.23408" transform="matrix(-0.617323 0.78671 0.78671 0.617323 49.6309 -43.3124)" fill="#28B2ED"/>
<rect width="146.696" height="1.23408" transform="matrix(-0.617323 0.78671 0.78671 0.617323 79.1621 -20.1387)" fill="#28B2ED"/>
<rect width="146.696" height="1.23408" transform="matrix(-0.617323 0.78671 0.78671 0.617323 64.3965 -31.7246)" fill="#28B2ED"/>
<rect width="146.696" height="1.23408" transform="matrix(-0.617323 0.78671 0.78671 0.617323 93.9277 -8.55273)" fill="#28B2ED"/>
<rect width="146.696" height="1.23408" transform="matrix(-0.617323 0.78671 0.78671 0.617323 97.6191 -5.6543)" fill="#28B2ED"/>
<rect width="146.696" height="1.23408" transform="matrix(-0.617323 0.78671 0.78671 0.617323 127.152 17.5176)" fill="#28B2ED"/>
<rect width="146.696" height="1.23408" transform="matrix(-0.617323 0.78671 0.78671 0.617323 112.387 5.93164)" fill="#28B2ED"/>
<rect width="146.696" height="1.23408" transform="matrix(-0.617323 0.78671 0.78671 0.617323 141.918 29.1055)" fill="#28B2ED"/>
<rect width="146.696" height="1.23408" transform="matrix(-0.617323 0.78671 0.78671 0.617323 105.004 0.138672)" fill="#28B2ED"/>
<rect width="146.696" height="1.23408" transform="matrix(-0.617323 0.78671 0.78671 0.617323 134.535 23.3125)" fill="#28B2ED"/>
<rect width="146.696" height="1.23408" transform="matrix(-0.617323 0.78671 0.78671 0.617323 119.77 11.7246)" fill="#28B2ED"/>
<rect width="146.696" height="1.23408" transform="matrix(-0.617323 0.78671 0.78671 0.617323 149.301 34.8984)" fill="#28B2ED"/>
<rect width="146.696" height="1.23408" transform="matrix(-0.617323 0.78671 0.78671 0.617323 101.312 -2.75781)" fill="#28B2ED"/>
<rect width="146.696" height="1.23408" transform="matrix(-0.617323 0.78671 0.78671 0.617323 130.844 20.4141)" fill="#28B2ED"/>
<rect width="146.696" height="1.23408" transform="matrix(-0.617323 0.78671 0.78671 0.617323 116.078 8.82812)" fill="#28B2ED"/>
<rect width="146.696" height="1.23408" transform="matrix(-0.617323 0.78671 0.78671 0.617323 145.609 32.002)" fill="#28B2ED"/>
<rect width="146.696" height="1.23408" transform="matrix(-0.617323 0.78671 0.78671 0.617323 108.695 3.03516)" fill="#28B2ED"/>
<rect width="146.696" height="1.23408" transform="matrix(-0.617323 0.78671 0.78671 0.617323 138.227 26.209)" fill="#28B2ED"/>
<rect width="146.696" height="1.23408" transform="matrix(-0.617323 0.78671 0.78671 0.617323 123.461 14.6211)" fill="#28B2ED"/>
<rect width="146.696" height="1.23408" transform="matrix(-0.617323 0.78671 0.78671 0.617323 152.992 37.7949)" fill="#28B2ED"/>
</g>
<defs>
<clipPath id="clip0_301_186">
<rect width="101.96" height="101.96" fill="white" transform="matrix(-1 8.74228e-08 8.74228e-08 1 101.961 0)"/>
</clipPath>
</defs>
</svg>
